<svg version="1.1" id="Layer_1" xmlns="http://www.w3.org/2000/svg" xmlns:xlink="http://www.w3.org/1999/xlink" x="0px" y="0px"
	 width="100%" viewBox="0 0 465 269" enable-background="new 0 0 465 269" xml:space="preserve">
<path fill="#000000" opacity="1.000000" stroke="none" 
	d="
M343.000000,270.000000 
	C228.666672,270.000000 114.833336,270.000000 1.000000,270.000000 
	C1.000000,180.333328 1.000000,90.666664 1.000000,1.000000 
	C156.000000,1.000000 311.000000,1.000000 466.000000,1.000000 
	C466.000000,90.666664 466.000000,180.333328 466.000000,270.000000 
	C425.166656,270.000000 384.333344,270.000000 343.000000,270.000000 
M366.445648,107.523643 
	C368.228241,108.703362 370.010834,109.883080 373.001221,111.862099 
	C373.001221,104.208313 372.748657,98.002579 373.085571,91.829018 
	C373.330597,87.339813 371.771362,84.206436 367.432556,81.686195 
	C365.616638,80.131508 363.800720,78.576820 361.398773,76.686043 
	C357.283295,73.771164 353.167816,70.856285 348.600555,67.472710 
	C346.723846,66.332428 344.847107,65.192146 342.536743,63.545368 
	C340.012451,62.072399 337.488129,60.599434 334.283386,58.946045 
	C331.850922,57.651993 329.418488,56.357941 326.379700,54.696072 
	C321.922852,52.788136 317.466034,50.880199 312.380127,48.625797 
	C308.348267,47.263397 304.316376,45.900993 299.612335,44.209267 
	C295.115875,43.011326 290.619385,41.813385 285.512939,40.246754 
	C283.343842,39.821949 281.174713,39.397141 278.292328,38.639549 
	C274.205261,38.056160 270.118225,37.472771 265.339081,36.509769 
	C262.893982,36.326878 260.448853,36.143986 257.262085,35.686775 
	C254.832672,35.525356 252.403259,35.363934 249.050079,35.057949 
	C242.360718,35.088200 235.671341,35.118454 228.173309,35.348606 
	C224.443039,35.623108 220.712753,35.897610 216.201859,36.092098 
	C213.402222,36.508770 210.602585,36.925442 206.985504,37.324913 
	C205.656570,37.618202 204.327637,37.911491 202.192688,38.127842 
	C98.033928,58.317764 35.780983,152.199783 44.009769,238.809799 
	C49.098232,200.931931 62.169601,166.345428 86.569427,136.175674 
	C86.569427,150.704102 86.569427,165.232529 86.569427,180.007538 
	C95.296524,180.007538 103.448662,180.028976 111.600647,180.002579 
	C124.123970,179.962036 133.377335,172.910126 136.183792,160.805771 
	C140.311218,143.003983 131.689056,124.541489 109.244194,125.947227 
	C104.338516,126.254471 99.397163,125.992172 94.586960,125.992172 
	C94.450310,125.416939 94.336884,125.207008 94.393936,125.137947 
	C94.923195,124.497398 95.473686,123.873734 96.033089,123.258873 
	C119.741806,97.199783 148.245590,78.584076 181.950104,68.133842 
	C189.234375,65.875328 196.660385,64.073921 204.850998,62.177486 
	C206.226944,61.980690 207.602905,61.783894 209.774796,61.669823 
	C212.171570,61.253620 214.568344,60.837418 217.776688,60.518097 
	C221.505478,60.197281 225.234268,59.876465 229.829773,59.733589 
	C236.534760,59.664555 243.239731,59.595516 250.808899,59.778618 
	C253.202438,59.807636 255.595963,59.836658 258.750153,60.112610 
	C261.164764,60.381290 263.579407,60.649967 266.760620,61.196625 
	C270.839966,61.801018 274.919281,62.405411 279.550079,63.469841 
	C281.177704,63.813484 282.805298,64.157127 285.112061,64.861542 
	C289.725250,66.124413 294.338470,67.387283 299.514496,68.993271 
	C303.625061,70.382210 307.735596,71.771141 312.353210,73.643585 
	C316.867371,75.538307 321.381561,77.433029 326.320862,79.807907 
	C328.879456,81.210197 331.438019,82.612488 334.429565,84.522682 
	C336.609863,85.694168 338.790161,86.865662 341.396484,88.527313 
	C343.246124,89.703606 345.095795,90.879898 347.313232,92.624741 
	C351.875732,95.761353 356.438232,98.897964 361.311096,102.597435 
	C362.874786,104.067886 364.438507,105.538338 366.445648,107.523643 
M307.393280,166.484772 
	C307.393280,153.060181 307.393280,139.635590 307.393280,126.199928 
	C302.115265,126.199928 297.497070,126.199928 292.282684,126.199928 
	C292.282684,135.245483 292.282684,144.095337 292.282684,152.945190 
	C285.565247,145.133896 279.894073,137.018204 274.092133,128.997086 
	C273.207550,127.774170 271.784698,126.255424 270.495300,126.137611 
	C266.447968,125.767822 262.345490,126.001564 258.335724,126.001564 
	C258.335724,144.352753 258.335724,161.957260 258.335724,179.712982 
	C263.292023,179.712982 268.015839,179.712982 273.175659,179.712982 
	C273.175659,171.043167 273.175659,162.658936 273.175659,153.112213 
	C274.905884,155.254349 275.944427,156.454071 276.888824,157.723816 
	C281.759125,164.272034 286.545776,170.883926 291.514771,177.355988 
	C292.409241,178.521042 293.965210,179.768982 295.310425,179.885452 
	C299.212433,180.223312 303.162567,180.005142 307.393280,180.005142 
	C307.393280,175.438858 307.393280,171.458069 307.393280,166.484772 
M183.134323,139.469650 
	C178.119858,152.812576 173.105408,166.155487 167.971832,179.815338 
	C173.174606,179.815338 177.925705,179.815338 182.757767,179.815338 
	C184.039139,176.494614 185.275543,173.290482 186.490997,170.140564 
	C192.796051,170.140564 198.755676,170.140564 204.760956,170.140564 
	C206.144638,173.806198 207.480652,177.345551 208.855576,180.988007 
	C213.698730,180.472565 218.235672,179.989716 223.189545,179.462494 
	C222.516144,177.466629 222.044678,175.916458 221.474518,174.403488 
	C216.906494,162.282150 212.306152,150.173004 207.742661,138.049973 
	C203.051315,125.587280 203.064560,125.580437 189.816467,126.013023 
	C189.327148,126.028999 188.841293,126.150932 188.153412,126.253311 
	C186.571564,130.369522 184.965683,134.548309 183.134323,139.469650 
M366.672852,169.978577 
	C370.776459,169.978577 374.880096,169.978577 378.880829,169.978577 
	C380.341492,173.902328 381.611359,177.313599 382.967194,180.955765 
	C387.702698,180.474503 392.258179,180.011520 397.397125,179.489258 
	C396.691620,177.437134 396.157684,175.743423 395.531250,174.084625 
	C391.006439,162.103378 386.445038,150.135895 381.930176,138.150894 
	C377.166687,125.505920 377.183563,125.498329 363.575287,126.036659 
	C363.250153,126.049515 362.929352,126.171501 362.236511,126.324066 
	C355.614227,143.953888 348.921387,161.771500 342.178192,179.723175 
	C347.430481,179.723175 352.187225,179.723175 356.526611,179.723175 
	C359.740723,176.167221 357.762421,168.447037 366.672852,169.978577 
M248.118439,163.997284 
	C248.669357,163.212784 249.703506,162.417496 249.686310,161.645660 
	C249.617310,158.550308 249.222443,155.462219 248.941345,152.295837 
	C241.270935,152.295837 233.904221,152.295837 226.154953,152.295837 
	C226.477814,156.295013 226.776215,159.991226 227.100555,164.008636 
	C233.987854,164.008636 240.585922,164.008636 248.118439,163.997284 
M164.865631,158.577026 
	C164.691086,156.465591 164.516556,154.354156 164.354492,152.393616 
	C156.459778,152.393616 149.077499,152.393616 141.554260,152.393616 
	C141.841660,156.379318 142.101456,159.982086 142.370941,163.719391 
	C150.068680,163.719391 157.448944,163.719391 164.893890,163.719391 
	C164.893890,162.126648 164.893890,160.822708 164.865631,158.577026 
M339.167816,162.398895 
	C338.934692,158.996719 338.701599,155.594543 338.473877,152.271149 
	C330.628387,152.271149 323.378448,152.271149 315.729675,152.271149 
	C316.006653,156.273926 316.264404,159.998917 316.497467,163.366760 
	C324.343384,163.366760 331.728271,163.366760 339.167816,162.398895 
z"/>
<path fill="#D5D5D5" opacity="1.000000" stroke="none" 
	d="
M204.021103,62.061962 
	C196.660385,64.073921 189.234375,65.875328 181.950104,68.133842 
	C148.245590,78.584076 119.741806,97.199783 96.033089,123.258873 
	C95.473686,123.873734 94.923195,124.497398 94.393936,125.137947 
	C94.336884,125.207008 94.450310,125.416939 94.586960,125.992172 
	C99.397163,125.992172 104.338516,126.254471 109.244194,125.947227 
	C131.689056,124.541489 140.311218,143.003983 136.183792,160.805771 
	C133.377335,172.910126 124.123970,179.962036 111.600647,180.002579 
	C103.448662,180.028976 95.296524,180.007538 86.569427,180.007538 
	C86.569427,165.232529 86.569427,150.704102 86.569427,136.175674 
	C62.169601,166.345428 49.098232,200.931931 44.009769,238.809799 
	C35.780983,152.199783 98.033928,58.317764 202.675568,38.563816 
	C203.445999,46.687180 203.733551,54.374573 204.021103,62.061962 
M116.989059,165.658127 
	C122.916588,159.246078 123.173744,151.758362 119.876266,144.386490 
	C118.665428,141.679535 115.218719,139.248627 112.264259,138.244797 
	C109.172012,137.194183 105.445633,138.009995 101.807274,138.009995 
	C101.807274,148.136993 101.807274,157.844055 101.807274,168.845856 
	C106.911140,167.887192 111.633446,167.000198 116.989059,165.658127 
z"/>
<path fill="#D5D5D5" opacity="1.000000" stroke="none" 
	d="
M307.393280,166.981033 
	C307.393280,171.458069 307.393280,175.438858 307.393280,180.005142 
	C303.162567,180.005142 299.212433,180.223312 295.310425,179.885452 
	C293.965210,179.768982 292.409241,178.521042 291.514771,177.355988 
	C286.545776,170.883926 281.759125,164.272034 276.888824,157.723816 
	C275.944427,156.454071 274.905884,155.254349 273.175659,153.112213 
	C273.175659,162.658936 273.175659,171.043167 273.175659,179.712982 
	C268.015839,179.712982 263.292023,179.712982 258.335724,179.712982 
	C258.335724,161.957260 258.335724,144.352753 258.335724,126.001564 
	C262.345490,126.001564 266.447968,125.767822 270.495300,126.137611 
	C271.784698,126.255424 273.207550,127.774170 274.092133,128.997086 
	C279.894073,137.018204 285.565247,145.133896 292.282684,152.945190 
	C292.282684,144.095337 292.282684,135.245483 292.282684,126.199928 
	C297.497070,126.199928 302.115265,126.199928 307.393280,126.199928 
	C307.393280,139.635590 307.393280,153.060181 307.393280,166.981033 
z"/>
<path fill="#D4D4D4" opacity="1.000000" stroke="none" 
	d="
M183.247070,139.098373 
	C184.965683,134.548309 186.571564,130.369522 188.153412,126.253311 
	C188.841293,126.150932 189.327148,126.028999 189.816467,126.013023 
	C203.064560,125.580437 203.051315,125.587280 207.742661,138.049973 
	C212.306152,150.173004 216.906494,162.282150 221.474518,174.403488 
	C222.044678,175.916458 222.516144,177.466629 223.189545,179.462494 
	C218.235672,179.989716 213.698730,180.472565 208.855576,180.988007 
	C207.480652,177.345551 206.144638,173.806198 204.760956,170.140564 
	C198.755676,170.140564 192.796051,170.140564 186.490997,170.140564 
	C185.275543,173.290482 184.039139,176.494614 182.757767,179.815338 
	C177.925705,179.815338 173.174606,179.815338 167.971832,179.815338 
	C173.105408,166.155487 178.119858,152.812576 183.247070,139.098373 
M199.089294,157.994354 
	C199.336975,157.229950 199.974976,156.333511 199.768387,155.722778 
	C198.522476,152.039703 197.083160,148.422058 195.377472,143.905914 
	C193.619827,149.065018 192.167114,153.329025 190.569061,158.019699 
	C193.590271,158.019699 195.895065,158.019699 199.089294,157.994354 
z"/>
<path fill="#D4D4D4" opacity="1.000000" stroke="none" 
	d="
M366.201904,169.978577 
	C357.762421,168.447037 359.740723,176.167221 356.526611,179.723175 
	C352.187225,179.723175 347.430481,179.723175 342.178192,179.723175 
	C348.921387,161.771500 355.614227,143.953888 362.236511,126.324066 
	C362.929352,126.171501 363.250153,126.049515 363.575287,126.036659 
	C377.183563,125.498329 377.166687,125.505920 381.930176,138.150894 
	C386.445038,150.135895 391.006439,162.103378 395.531250,174.084625 
	C396.157684,175.743423 396.691620,177.437134 397.397125,179.489258 
	C392.258179,180.011520 387.702698,180.474503 382.967194,180.955765 
	C381.611359,177.313599 380.341492,173.902328 378.880829,169.978577 
	C374.880096,169.978577 370.776459,169.978577 366.201904,169.978577 
M367.393951,150.021820 
	C366.554565,152.511703 365.715149,155.001587 364.804199,157.703690 
	C368.167023,157.703690 371.160828,157.703690 374.707153,157.703690 
	C372.998199,153.096344 371.460846,148.951614 369.639069,144.040161 
	C368.789764,146.344086 368.238037,147.840744 367.393951,150.021820 
z"/>
<path fill="#A5A5A5" opacity="1.000000" stroke="none" 
	d="
M228.981979,35.148705 
	C235.671341,35.118454 242.360718,35.088200 249.513916,35.585709 
	C249.966751,43.917809 249.955734,51.722145 249.944717,59.526482 
	C243.239731,59.595516 236.534760,59.664555 229.397278,59.283203 
	C228.970520,50.938114 228.976242,43.043411 228.981979,35.148705 
z"/>
<path fill="#414141" opacity="1.000000" stroke="none" 
	d="
M313.009155,48.972267 
	C317.466034,50.880199 321.922852,52.788136 326.686890,55.342388 
	C326.627960,63.768387 326.261841,71.548073 325.895721,79.327744 
	C321.381561,77.433029 316.867371,75.538307 312.385498,73.074036 
	C312.614899,64.660408 312.812042,56.816334 313.009155,48.972267 
z"/>
<path fill="#696969" opacity="1.000000" stroke="none" 
	d="
M286.122925,40.615440 
	C290.619385,41.813385 295.115875,43.011326 299.869659,44.878479 
	C299.735199,53.248512 299.343445,60.949333 298.951660,68.650154 
	C294.338470,67.387283 289.725250,66.124413 285.112061,64.344849 
	C285.408264,62.066704 285.919098,60.310406 285.961548,58.542858 
	C286.104919,52.569206 286.082123,46.591560 286.122925,40.615440 
z"/>
<path fill="#515151" opacity="1.000000" stroke="none" 
	d="
M299.233093,68.821716 
	C299.343445,60.949333 299.735199,53.248512 300.205750,45.043144 
	C304.316376,45.900993 308.348267,47.263397 312.694641,48.799030 
	C312.812042,56.816334 312.614899,64.660408 312.131958,72.832275 
	C307.735596,71.771141 303.625061,70.382210 299.233093,68.821716 
z"/>
<path fill="#838383" opacity="1.000000" stroke="none" 
	d="
M278.998596,63.009800 
	C274.919281,62.405411 270.839966,61.801018 266.378540,60.594547 
	C266.007996,52.291443 266.019562,44.590412 266.031158,36.889381 
	C270.118225,37.472771 274.205261,38.056160 278.641968,39.276627 
	C278.993958,47.612404 278.996277,55.311100 278.998596,63.009800 
z"/>
<path fill="#161616" opacity="1.000000" stroke="none" 
	d="
M349.052307,67.941406 
	C353.167816,70.856285 357.283295,73.771164 361.676941,77.273178 
	C361.636963,85.918404 361.318848,93.976486 361.000732,102.034576 
	C356.438232,98.897964 351.875732,95.761353 347.513031,92.205154 
	C348.145874,90.126274 348.910339,88.475433 348.952942,86.806168 
	C349.113373,80.521172 349.038818,74.230164 349.052307,67.941406 
z"/>
<path fill="#B7B7B7" opacity="1.000000" stroke="none" 
	d="
M228.577637,35.248657 
	C228.976242,43.043411 228.970520,50.938114 228.963928,59.194237 
	C225.234268,59.876465 221.505478,60.197281 217.376953,60.038727 
	C216.978989,51.763607 216.980728,43.967857 216.982483,36.172112 
	C220.712753,35.897610 224.443039,35.623108 228.577637,35.248657 
z"/>
<path fill="#D4D4D4" opacity="1.000000" stroke="none" 
	d="
M247.651215,164.002960 
	C240.585922,164.008636 233.987854,164.008636 227.100555,164.008636 
	C226.776215,159.991226 226.477814,156.295013 226.154953,152.295837 
	C233.904221,152.295837 241.270935,152.295837 248.941345,152.295837 
	C249.222443,155.462219 249.617310,158.550308 249.686310,161.645660 
	C249.703506,162.417496 248.669357,163.212784 247.651215,164.002960 
z"/>
<path fill="#D4D4D4" opacity="1.000000" stroke="none" 
	d="
M164.879761,159.047897 
	C164.893890,160.822708 164.893890,162.126648 164.893890,163.719391 
	C157.448944,163.719391 150.068680,163.719391 142.370941,163.719391 
	C142.101456,159.982086 141.841660,156.379318 141.554260,152.393616 
	C149.077499,152.393616 156.459778,152.393616 164.354492,152.393616 
	C164.516556,154.354156 164.691086,156.465591 164.879761,159.047897 
z"/>
<path fill="#D4D4D4" opacity="1.000000" stroke="none" 
	d="
M339.140472,162.882828 
	C331.728271,163.366760 324.343384,163.366760 316.497467,163.366760 
	C316.264404,159.998917 316.006653,156.273926 315.729675,152.271149 
	C323.378448,152.271149 330.628387,152.271149 338.473877,152.271149 
	C338.701599,155.594543 338.934692,158.996719 339.140472,162.882828 
z"/>
<path fill="#2E2E2E" opacity="1.000000" stroke="none" 
	d="
M340.970459,88.037148 
	C338.790161,86.865662 336.609863,85.694168 334.213989,83.798676 
	C334.320221,75.091927 334.642029,67.109200 334.963837,59.126465 
	C337.488129,60.599434 340.012451,62.072399 342.690613,64.205933 
	C342.562988,69.245399 342.329742,73.628105 341.984375,78.001968 
	C341.719757,81.352829 341.313629,84.692497 340.970459,88.037148 
z"/>
<path fill="#C8C8C8" opacity="1.000000" stroke="none" 
	d="
M216.592163,36.132103 
	C216.980728,43.967857 216.978989,51.763607 216.971176,59.990284 
	C214.568344,60.837418 212.171570,61.253620 209.372192,61.186256 
	C208.580719,52.915829 208.191833,45.128971 207.802948,37.342113 
	C210.602585,36.925442 213.402222,36.508770 216.592163,36.132103 
z"/>
<path fill="#949494" opacity="1.000000" stroke="none" 
	d="
M250.376801,59.652550 
	C249.955734,51.722145 249.966751,43.917809 249.975800,35.657993 
	C252.403259,35.363934 254.832672,35.525356 257.632324,36.295280 
	C257.998199,44.557751 257.993835,52.211712 257.989502,59.865677 
	C255.595963,59.836658 253.202438,59.807636 250.376801,59.652550 
z"/>
<path fill="#8B8B8B" opacity="1.000000" stroke="none" 
	d="
M258.369812,59.989143 
	C257.993835,52.211712 257.998199,44.557751 258.003174,36.432438 
	C260.448853,36.143986 262.893982,36.326878 265.685120,36.699577 
	C266.019562,44.590412 266.007996,52.291443 265.995239,60.455559 
	C263.579407,60.649967 261.164764,60.381290 258.369812,59.989143 
z"/>
<path fill="#383838" opacity="1.000000" stroke="none" 
	d="
M334.623596,59.036255 
	C334.642029,67.109200 334.320221,75.091927 333.997498,83.544724 
	C331.438019,82.612488 328.879456,81.210197 326.108276,79.567825 
	C326.261841,71.548073 326.627960,63.768387 326.990051,55.526299 
	C329.418488,56.357941 331.850922,57.651993 334.623596,59.036255 
z"/>
<path fill="#0E0E0E" opacity="1.000000" stroke="none" 
	d="
M361.155914,102.316002 
	C361.318848,93.976486 361.636963,85.918404 361.969971,77.441223 
	C363.800720,78.576820 365.616638,80.131508 367.718903,82.311340 
	C368.005005,89.226509 368.147400,95.521843 367.912750,101.803108 
	C367.847107,103.559662 366.669617,105.274696 366.002197,107.008789 
	C364.438507,105.538338 362.874786,104.067886 361.155914,102.316002 
z"/>
<path fill="#252525" opacity="1.000000" stroke="none" 
	d="
M341.183472,88.282227 
	C341.313629,84.692497 341.719757,81.352829 341.984375,78.001968 
	C342.329742,73.628105 342.562988,69.245399 342.907410,64.459175 
	C344.847107,65.192146 346.723846,66.332428 348.826416,67.707062 
	C349.038818,74.230164 349.113373,80.521172 348.952942,86.806168 
	C348.910339,88.475433 348.145874,90.126274 347.329132,91.920883 
	C345.095795,90.879898 343.246124,89.703606 341.183472,88.282227 
z"/>
<path fill="#727272" opacity="1.000000" stroke="none" 
	d="
M279.274353,63.239822 
	C278.996277,55.311100 278.993958,47.612404 278.998596,39.443020 
	C281.174713,39.397141 283.343842,39.821949 285.817932,40.431099 
	C286.082123,46.591560 286.104919,52.569206 285.961548,58.542858 
	C285.919098,60.310406 285.408264,62.066704 284.772522,64.164467 
	C282.805298,64.157127 281.177704,63.813484 279.274353,63.239822 
z"/>
<path fill="#020202" opacity="1.000000" stroke="none" 
	d="
M366.223938,107.266212 
	C366.669617,105.274696 367.847107,103.559662 367.912750,101.803108 
	C368.147400,95.521843 368.005005,89.226509 368.005676,82.467773 
	C371.771362,84.206436 373.330597,87.339813 373.085571,91.829018 
	C372.748657,98.002579 373.001221,104.208313 373.001221,111.862099 
	C370.010834,109.883080 368.228241,108.703362 366.223938,107.266212 
z"/>
<path fill="#D4D4D4" opacity="1.000000" stroke="none" 
	d="
M207.394226,37.333511 
	C208.191833,45.128971 208.580719,52.915829 208.974228,61.144890 
	C207.602905,61.783894 206.226944,61.980690 204.436050,62.119724 
	C203.733551,54.374573 203.445999,46.687180 203.078568,38.602287 
	C204.327637,37.911491 205.656570,37.618202 207.394226,37.333511 
z"/>
<path fill="#020202" opacity="1.000000" stroke="none" 
	d="
M116.672409,165.885666 
	C111.633446,167.000198 106.911140,167.887192 101.807274,168.845856 
	C101.807274,157.844055 101.807274,148.136993 101.807274,138.009995 
	C105.445633,138.009995 109.172012,137.194183 112.264259,138.244797 
	C115.218719,139.248627 118.665428,141.679535 119.876266,144.386490 
	C123.173744,151.758362 122.916588,159.246078 116.672409,165.885666 
z"/>
<path fill="#0E0E0E" opacity="1.000000" stroke="none" 
	d="
M198.644577,158.007019 
	C195.895065,158.019699 193.590271,158.019699 190.569061,158.019699 
	C192.167114,153.329025 193.619827,149.065018 195.377472,143.905914 
	C197.083160,148.422058 198.522476,152.039703 199.768387,155.722778 
	C199.974976,156.333511 199.336975,157.229950 198.644577,158.007019 
z"/>
<path fill="#0E0E0E" opacity="1.000000" stroke="none" 
	d="
M367.540131,149.679611 
	C368.238037,147.840744 368.789764,146.344086 369.639069,144.040161 
	C371.460846,148.951614 372.998199,153.096344 374.707153,157.703690 
	C371.160828,157.703690 368.167023,157.703690 364.804199,157.703690 
	C365.715149,155.001587 366.554565,152.511703 367.540131,149.679611 
z"/>
</svg>